<svg xmlns="http://www.w3.org/2000/svg" width="1921" height="262.5" viewBox="0 0 1921 262.5">
  <path id="Subtraction_26" data-name="Subtraction 26" d="M5334.5,214.5h-1921V87.565c20.4-4.206,42.144-7.573,64.643-10.01A846.547,846.547,0,0,1,3568.81,72.8c2.385,0,4.888.01,7.44.031,2.552-.02,5.054-.031,7.439-.031a846.543,846.543,0,0,1,90.668,4.753c22.5,2.437,44.25,5.805,64.643,10.01v.063c5.582.945,11.177,1.936,16.63,2.945,18.026,3.334,36.378,7.183,54.546,11.44,19.01,4.452,38.352,9.475,57.487,14.927,19.983,5.695,40.28,12.008,60.327,18.766,20.852,7.025,42.072,14.746,63.073,22.948,21.967,8.579,44.481,16.131,66.918,22.447,21.526,6.057,43.55,11.135,65.46,15.094,20.994,3.79,42.417,6.65,63.675,8.5,20.332,1.769,41.044,2.666,61.563,2.666,16.336,0,32.982-.569,49.475-1.69,15.77-1.074,31.789-2.678,47.61-4.77,15.08-2,30.408-4.49,45.56-7.414,14.383-2.778,28.962-6.013,43.332-9.615a868.238,868.238,0,0,0,147.35-51.674c18.871-8.569,37.553-17.855,55.529-27.6,14.371-7.79,28.327-15.89,41.478-24.074,21.553-13.418,33.606-22.479,34.91-23.467l.029-.022c.083-.065,8.463-6.643,24.154-16.412,9.174-5.712,19.008-11.373,29.227-16.823,12.766-6.806,26.158-13.294,39.8-19.282A622.487,622.487,0,0,1,4915.889-31.59,631.377,631.377,0,0,1,5059.217-48c20.882,0,42.1,1.036,63.053,3.079,22.232,2.166,44.8,5.523,67.086,9.979a724.016,724.016,0,0,1,70.836,17.992c24.675,7.6,49.675,16.725,74.307,27.119V214.5Z" transform="translate(-3413.5 48)" fill="currentColor"/>
</svg>
