<svg xmlns="http://www.w3.org/2000/svg" xmlns:xlink="http://www.w3.org/1999/xlink" width="3311.5" height="300.5" viewBox="0 0 3311.5 300.5">
  <defs>
    <filter id="Intersection_3" x="1372.5" y="0" width="1938.999" height="300.5" filterUnits="userSpaceOnUse">
      <feOffset dy="3" input="SourceAlpha"/>
      <feGaussianBlur stdDeviation="3" result="blur"/>
      <feFlood flood-opacity="0.161"/>
      <feComposite operator="in" in2="blur"/>
      <feComposite in="SourceGraphic"/>
    </filter>
  </defs>
  <g id="Group_129" data-name="Group 129" transform="translate(1381.999 -4101.5)">
    <g id="Group_128" data-name="Group 128">
      <g transform="matrix(1, 0, 0, 1, -1382, 4101.5)" filter="url(#Intersection_3)">
        <path id="Intersection_3-2" data-name="Intersection 3" d="M1934.73,204.148c-22.234-2.166-44.8-5.523-67.085-9.98a723.578,723.578,0,0,1-70.836-17.992,790.6,790.6,0,0,1-74.308-27.119V-75.272h1921V71.664c-20.4,4.2-42.147,7.572-64.642,10.008a846.185,846.185,0,0,1-90.668,4.752c-28.354,0-57.6-1.339-86.94-3.98-32.738-2.949-66.343-7.588-99.879-13.789-18.007-3.33-36.36-7.179-54.547-11.439-19.006-4.452-38.347-9.475-57.486-14.929-19.961-5.688-40.258-12-60.328-18.765-20.86-7.029-42.081-14.75-63.073-22.948-21.967-8.58-44.481-16.132-66.918-22.447-21.529-6.059-43.553-11.138-65.46-15.094-20.979-3.788-42.4-6.649-63.675-8.5-20.314-1.769-41.027-2.666-61.562-2.666-16.344,0-32.99.568-49.474,1.689-15.755,1.071-31.773,2.677-47.61,4.771-15.1,2-30.425,4.491-45.561,7.414-14.372,2.774-28.95,6.009-43.332,9.615a868.1,868.1,0,0,0-147.35,51.674c-18.868,8.568-37.55,17.854-55.529,27.6-14.38,7.8-28.335,15.9-41.477,24.075-22.7,14.127-34.819,23.4-34.938,23.489-.344.27-8.6,6.729-24.155,16.411-9.171,5.711-19,11.37-29.227,16.822-12.764,6.806-26.156,13.295-39.8,19.284a622.508,622.508,0,0,1-108.754,36.106,631.64,631.64,0,0,1-67.665,11.9,637.276,637.276,0,0,1-75.663,4.513C1976.914,207.228,1955.7,206.192,1934.73,204.148Z" transform="translate(-341 81.27)" fill="currentColor"/>
      </g>
    </g>
    <path id="Intersection_6" data-name="Intersection 6" d="M212.229,3.08C190,5.246,167.425,8.6,145.144,13.06A723.578,723.578,0,0,0,74.308,31.051,790.6,790.6,0,0,0,0,58.17V282.5H1921V135.563c-20.4-4.2-42.147-7.572-64.642-10.008a846.185,846.185,0,0,0-90.668-4.752c-28.354,0-57.6,1.339-86.94,3.98-32.738,2.949-66.343,7.588-99.879,13.789-18.007,3.33-36.36,7.179-54.547,11.439-19.006,4.452-38.347,9.475-57.486,14.929-19.961,5.688-40.258,12-60.328,18.765-20.86,7.029-42.081,14.75-63.073,22.948-21.967,8.58-44.481,16.132-66.918,22.447-21.529,6.059-43.553,11.138-65.46,15.094-20.979,3.788-42.4,6.649-63.675,8.5-20.314,1.769-41.027,2.666-61.562,2.666-16.344,0-32.99-.568-49.474-1.689-15.755-1.071-31.773-2.677-47.61-4.771-15.1-2-30.425-4.491-45.561-7.414-14.372-2.774-28.95-6.009-43.332-9.615A868.1,868.1,0,0,1,752.494,180.2c-18.868-8.568-37.55-17.854-55.529-27.6-14.38-7.8-28.335-15.9-41.477-24.075-22.7-14.127-34.819-23.4-34.938-23.489-.344-.27-8.6-6.729-24.155-16.411-9.171-5.711-19-11.37-29.227-16.822-12.764-6.806-26.156-13.295-39.8-19.284A622.508,622.508,0,0,0,418.611,16.411,631.453,631.453,0,0,0,275.283,0C254.414,0,233.2,1.036,212.229,3.08Z" transform="translate(539 4390) rotate(180)" fill="currentColor"/>
  </g>
</svg>
