<svg xmlns="http://www.w3.org/2000/svg" width="3315.002" height="276.5" viewBox="0 0 3315.002 276.5">
  <g id="Group_137" data-name="Group 137" transform="translate(951.501 -4164.5)">
    <path id="Subtraction_28" data-name="Subtraction 28" d="M2041.785-79c-1.79,0-3.652-.008-5.534-.023-1.883.015-3.745.023-5.534.023a637.1,637.1,0,0,1-75.663-4.514,630.893,630.893,0,0,1-67.665-11.9,622.327,622.327,0,0,1-108.755-36.1c-4.048-1.776-8.13-3.623-12.135-5.488V-355.5h1921v140.938c-20.386,4.2-42.134,7.571-64.642,10.008a846.527,846.527,0,0,1-90.668,4.751c-28.371,0-57.622-1.339-86.94-3.98-32.744-2.949-66.348-7.588-99.878-13.789-18.012-3.331-36.365-7.18-54.548-11.437-19.017-4.456-38.358-9.479-57.486-14.93-19.953-5.686-40.25-12-60.328-18.764-20.844-7.023-42.065-14.744-63.073-22.949-21.958-8.576-44.473-16.128-66.918-22.446-21.529-6.059-43.552-11.137-65.46-15.093-20.994-3.79-42.417-6.65-63.674-8.5-20.315-1.769-41.028-2.665-61.562-2.665-16.334,0-32.98.569-49.476,1.69-15.777,1.072-31.795,2.677-47.609,4.77-15.048,1.989-30.377,4.483-45.563,7.414-14.368,2.774-28.946,6.008-43.33,9.614a868.1,868.1,0,0,0-147.35,51.675c-18.854,8.562-37.536,17.848-55.528,27.6-14.378,7.792-28.333,15.891-41.478,24.073-22.2,13.819-34.43,23.1-34.94,23.49a290.77,290.77,0,0,1-24.152,16.412c-9.185,5.717-19.018,11.377-29.227,16.82-12.761,6.8-26.153,13.293-39.8,19.285a622.28,622.28,0,0,1-108.755,36.1,630.906,630.906,0,0,1-67.664,11.9A637.152,637.152,0,0,1,2041.785-79Z" transform="translate(-1323.999 4520)" fill="currentColor"/>
    <path id="Subtraction_35" data-name="Subtraction 35" d="M275.286,0c-1.79,0-3.652.008-5.534.023C267.869.008,266.007,0,264.218,0A631.46,631.46,0,0,0,120.891,16.412a622.327,622.327,0,0,0-108.755,36.1C8.088,54.293,4.005,56.139,0,58V276.5H1921V135.563c-20.386-4.2-42.134-7.571-64.642-10.008a846.527,846.527,0,0,0-90.668-4.751c-28.371,0-57.622,1.339-86.94,3.98-32.744,2.949-66.348,7.588-99.878,13.789-18.012,3.331-36.365,7.18-54.548,11.437-19.017,4.456-38.358,9.479-57.486,14.93-19.953,5.686-40.25,12-60.328,18.764-20.844,7.023-42.065,14.744-63.073,22.949-21.958,8.576-44.473,16.128-66.918,22.446-21.529,6.059-43.552,11.137-65.46,15.093-20.994,3.79-42.417,6.65-63.674,8.5-20.315,1.769-41.028,2.665-61.562,2.665-16.334,0-32.98-.569-49.476-1.69-15.777-1.072-31.795-2.677-47.609-4.77-15.048-1.989-30.377-4.483-45.563-7.414-14.368-2.774-28.946-6.008-43.33-9.614A868.1,868.1,0,0,1,752.5,180.2c-18.854-8.562-37.536-17.848-55.528-27.6C682.59,144.8,668.634,136.7,655.49,128.523c-22.2-13.819-34.43-23.1-34.94-23.49A290.77,290.77,0,0,0,596.4,88.621C587.212,82.9,577.379,77.245,567.17,71.8c-12.761-6.8-26.153-13.293-39.8-19.285a622.28,622.28,0,0,0-108.755-36.1A631.447,631.447,0,0,0,275.286,0Z" transform="translate(969.501 4441) rotate(180)" fill="currentColor"/>
  </g>
</svg>
