<svg xmlns="http://www.w3.org/2000/svg" width="93" height="93" viewBox="0 0 93 93">
  <path id="icons8-behance" d="M12.455,4A8.452,8.452,0,0,0,4,12.455V88.545A8.452,8.452,0,0,0,12.455,97H88.545A8.452,8.452,0,0,0,97,88.545V12.455A8.452,8.452,0,0,0,88.545,4ZM61.068,33.591H71.876a2.114,2.114,0,1,1,0,4.227H61.068a2.114,2.114,0,1,1,0-4.227ZM24.8,35.218H36.572c6.95,0,11.1,3.4,11.1,8.933A7.756,7.756,0,0,1,41.187,51.8v.446a8.509,8.509,0,0,1,8.19,8.537c0,6.278-4.738,10.255-12.385,10.255H24.8a3.889,3.889,0,0,1-3.889-3.889V39.106A3.889,3.889,0,0,1,24.8,35.218Zm3.608,5.73v9.115h5.631c4.05,0,6.258-1.662,6.258-4.541,0-2.853-2.054-4.574-5.631-4.574Zm38.846,2.114c8.07,0,12.83,5.142,12.83,13.83v2.2H61.3v.372c.1,4.071,2.484,6.605,6.258,6.605,2.853,0,4.812-1.015,5.581-2.824h6.729c-1.091,5.166-5.812,8.389-12.517,8.389-8.34,0-13.251-5.266-13.251-14.152C54.1,48.574,59.111,43.061,67.252,43.061Zm.033,5.54c-3.352,0-5.716,2.328-5.961,5.878H72.99C72.838,50.857,70.659,48.6,67.285,48.6ZM28.406,55.132v10.18h6.679c4.32,0,6.655-1.821,6.655-5.168,0-3.28-2.41-5.012-6.828-5.012Z" transform="translate(-4 -4)" fill="currentColor"/>
</svg>
