<svg xmlns="http://www.w3.org/2000/svg" width="42.925" height="37.766" viewBox="0 0 42.925 37.766">
  <g id="Group_126" data-name="Group 126" transform="translate(0.5 0.5)">
    <g id="Group_123" data-name="Group 123" transform="translate(0 0)">
      <path id="Path_106" data-name="Path 106" d="M362.8,99.839a3.046,3.046,0,0,1-.837,1.884,10.537,10.537,0,0,1-1.895,1.748,18.483,18.483,0,0,0-.69,2.758,20.116,20.116,0,0,0-.305,3.606c0,1.039.646,2.442.2,3.441-.328.737-1.207.373-1.773.093-.587-.29-.691-.593-.721-1.264-.033-.742.077-1.481.077-2.222a23.715,23.715,0,0,1,.2-3.127c.074-.579.168-1.142.284-1.695-.116.053-.232.105-.358.153-.458.189-.963.374-1.542.568q-.8.268-1.642.521c-.411.126-.826.247-1.232.363l-.405.121a17.722,17.722,0,0,0-2.169.758,7.185,7.185,0,0,0-1.595.916,3.642,3.642,0,0,0-.974,1.116,2.8,2.8,0,0,0-.332,1.39,3.287,3.287,0,0,0,.353,1.59,3.136,3.136,0,0,0,.937,1.058,3.919,3.919,0,0,0,1.342.6,6.294,6.294,0,0,0,1.558.2c.837,0,.937.584.948.7.063.642-.711,1.321-1.253,1.432a2.769,2.769,0,0,1-.468.042,5.312,5.312,0,0,1-1.479-.279,6.541,6.541,0,0,1-2.048-1.016,5.486,5.486,0,0,1-1.516-1.758,5.188,5.188,0,0,1-.595-2.521,4.929,4.929,0,0,1,.516-2.269,5.638,5.638,0,0,1,1.416-1.753,8.913,8.913,0,0,1,2.105-1.3,19.5,19.5,0,0,1,2.653-.963c.674-.189,1.347-.4,2.016-.616.626-.2,1.247-.416,1.89-.663.563-.216,1.105-.453,1.621-.711a7.52,7.52,0,0,0,1.095-.653,10.441,10.441,0,0,1,1.353-2.669,2.365,2.365,0,0,1,1.79-1.147,1.431,1.431,0,0,1,.474.084,1.339,1.339,0,0,1,.474.263,1.4,1.4,0,0,1,.379.49A1.7,1.7,0,0,1,362.8,99.839Z" transform="translate(-344.87 -98.27)" fill="currentColor" stroke="currentColor" stroke-width="1"/>
    </g>
    <g id="Group_124" data-name="Group 124" transform="translate(0.512 1.642)">
      <path id="Path_107" data-name="Path 107" d="M387.256,120.25a4.466,4.466,0,0,1-.847,2.684,6.524,6.524,0,0,1-2.205,1.874,11.554,11.554,0,0,1-3.158,1.111,18.328,18.328,0,0,1-3.8.368,17.56,17.56,0,0,1-8.717-1.9,16.063,16.063,0,0,1-2.858-2.205c-.463-.416-.942-.847-1.437-1.232-1.09-.853-2.448-1.916-3.848-2.026a4.13,4.13,0,0,0-1.874.358c-.084.037-.168.074-.253.116-.284.121-.563.258-.837.4a21.465,21.465,0,0,0-7.532,5.827,7.772,7.772,0,0,0-1.811,5.032,3.923,3.923,0,0,0,3.021,3.653,3.742,3.742,0,0,0,2.821-.9,7.014,7.014,0,0,0,1.863-2.611,24.136,24.136,0,0,0,1.505-7.9c.067-.857,1.751-2.893,2.543-1.822.582.786-.264,2.164-.331,3q-.141,1.75-.454,3.48a13.693,13.693,0,0,1-2.569,6.369,6.934,6.934,0,0,1-5.1,2.584,5.014,5.014,0,0,1-1.353-.184,5.9,5.9,0,0,1-3.979-4.311,8.374,8.374,0,0,1,.832-5.785,15.366,15.366,0,0,1,3.653-4.448,23.691,23.691,0,0,1,6.39-4.127,7.752,7.752,0,0,1,4.832-.626,10.058,10.058,0,0,1,4.227,2.684l.153.137a16.961,16.961,0,0,0,4.858,3.184,16.313,16.313,0,0,0,6.285,1.032,16.786,16.786,0,0,0,3.432-.316,8.913,8.913,0,0,0,2.437-.853,4.073,4.073,0,0,0,1.405-1.205,2.4,2.4,0,0,0,.442-1.4,1.645,1.645,0,0,0-.142-.711,1.567,1.567,0,0,0-.4-.511,2.948,2.948,0,0,0-.69-.411,7.135,7.135,0,0,0-.947-.311c-.4-.105-.811-.189-1.221-.258-.39-.063-.811-.116-1.363-.179-.474-.053-.947-.1-1.426-.142L375,117.449a34.77,34.77,0,0,1-5-.732,13.961,13.961,0,0,1-3.637-1.311,6.157,6.157,0,0,1-2.284-2.011,4.984,4.984,0,0,1-.784-2.784,6.075,6.075,0,0,1,.726-2.927,8.236,8.236,0,0,1,1.921-2.348,12.566,12.566,0,0,1,2.784-1.779,21.873,21.873,0,0,1,3.348-1.232,31.7,31.7,0,0,1,3.237-.674c.142-.026.289-.047.437-.068.442-.063.884-.116,1.332-.158l.068-.011a.933.933,0,0,1,.79.147.692.692,0,0,1,.232.558c-.01.447-.274,1.063-1.469,1.437a6.959,6.959,0,0,1-1.179.232l-.321.047a20.085,20.085,0,0,0-5.322,1.605,11.355,11.355,0,0,0-2.321,1.421,6.326,6.326,0,0,0-1.495,1.732,4.049,4.049,0,0,0-.521,2A2.793,2.793,0,0,0,365.88,112a3.6,3.6,0,0,0,.99,1.1,6.628,6.628,0,0,0,1.558.847,14.725,14.725,0,0,0,2.032.611c.742.168,1.521.305,2.311.416.805.1,1.626.189,2.442.263l2.384.2c1.126.1,2.205.211,3.216.326a21.963,21.963,0,0,1,2.548.453,6.251,6.251,0,0,1,2.879,1.421A3.493,3.493,0,0,1,387.256,120.25Z" transform="translate(-345.843 -101.39)" fill="currentColor" stroke="currentColor" stroke-width="1"/>
    </g>
  </g>
</svg>
