<svg xmlns="http://www.w3.org/2000/svg" width="172.318" height="151.116" viewBox="0 0 172.318 151.116">
  <g id="Group_125" data-name="Group 125" transform="translate(-344.87 -98.27)">
    <g id="Group_123" data-name="Group 123" transform="translate(344.87 98.27)">
      <path id="Path_106" data-name="Path 106" d="M418.557,104.717c0,2.38-1.147,5-3.44,7.745a43.308,43.308,0,0,1-7.788,7.183,75.965,75.965,0,0,0-2.834,11.336,82.679,82.679,0,0,0-1.255,14.82c0,4.271,2.655,10.038.826,14.142-1.348,3.031-4.963,1.532-7.286.383-2.412-1.19-2.841-2.438-2.964-5.2-.136-3.048.316-6.088.316-9.134a97.473,97.473,0,0,1,.822-12.851c.3-2.38.692-4.695,1.168-6.966-.476.216-.952.433-1.471.627-1.882.779-3.959,1.536-6.339,2.337q-3.278,1.1-6.75,2.142c-1.687.519-3.4,1.017-5.062,1.493l-1.666.5a72.851,72.851,0,0,0-8.913,3.115,29.533,29.533,0,0,0-6.555,3.764,14.968,14.968,0,0,0-4,4.586A11.5,11.5,0,0,0,354,150.452a13.512,13.512,0,0,0,1.45,6.534,12.888,12.888,0,0,0,3.851,4.348,16.108,16.108,0,0,0,5.517,2.466,25.87,25.87,0,0,0,6.4.822c3.44,0,3.851,2.4,3.894,2.877.26,2.639-2.921,5.43-5.149,5.885a11.382,11.382,0,0,1-1.926.173,21.835,21.835,0,0,1-6.079-1.147,26.886,26.886,0,0,1-8.416-4.175,22.547,22.547,0,0,1-6.231-7.226,21.325,21.325,0,0,1-2.445-10.363,20.261,20.261,0,0,1,2.12-9.324,23.175,23.175,0,0,1,5.82-7.2,36.634,36.634,0,0,1,8.654-5.344,80.159,80.159,0,0,1,10.9-3.959c2.769-.779,5.538-1.644,8.286-2.531,2.574-.822,5.127-1.709,7.767-2.726,2.315-.887,4.543-1.861,6.663-2.921a30.906,30.906,0,0,0,4.5-2.683,42.91,42.91,0,0,1,5.56-10.969c2.445-3.18,4.846-4.716,7.356-4.716a5.88,5.88,0,0,1,1.947.346,5.5,5.5,0,0,1,1.947,1.082,5.75,5.75,0,0,1,1.558,2.012A6.979,6.979,0,0,1,418.557,104.717Z" transform="translate(-344.87 -98.27)" fill="currentColor"/>
    </g>
    <g id="Group_124" data-name="Group 124" transform="translate(346.975 105.02)">
      <path id="Path_107" data-name="Path 107" d="M516.056,178.906a18.356,18.356,0,0,1-3.483,11.034,26.816,26.816,0,0,1-9.065,7.7,47.489,47.489,0,0,1-12.981,4.565,75.335,75.335,0,0,1-15.62,1.514c-14.711,0-26.437-2.553-35.827-7.81a66.029,66.029,0,0,1-11.747-9.065c-1.9-1.709-3.873-3.483-5.906-5.062-4.478-3.5-10.06-7.875-15.815-8.329a16.976,16.976,0,0,0-7.7,1.471c-.346.151-.692.3-1.038.476-1.168.5-2.315,1.06-3.44,1.644-14.322,7.4-24.144,15.014-30.959,23.949-3.721,4.911-8.048,12.483-7.442,20.683.476,6.6,5.257,14.041,12.418,15.014a15.382,15.382,0,0,0,11.6-3.7,28.83,28.83,0,0,0,7.659-10.731c4.433-10.012,5.322-21.431,6.187-32.465.277-3.524,7.2-11.892,10.452-7.49,2.391,3.23-1.084,8.894-1.361,12.345q-.581,7.191-1.865,14.3c-1.449,8-3.959,18.195-10.558,26.178-4.716,5.711-12.57,10.622-20.964,10.622a20.612,20.612,0,0,1-5.56-.757c-7.81-2.142-14.214-9.108-16.356-17.719-1.839-7.442-.627-15.88,3.418-23.776,3.2-6.231,7.961-12.029,15.014-18.281a97.369,97.369,0,0,1,26.264-16.961c7.291-3.094,13.976-3.981,19.86-2.575,6.966,1.623,12.483,6.62,17.372,11.034l.627.562a69.714,69.714,0,0,0,19.969,13.089c7.031,2.877,15.252,4.24,25.831,4.24a69,69,0,0,0,14.106-1.3,36.632,36.632,0,0,0,10.017-3.5,16.739,16.739,0,0,0,5.776-4.954,9.865,9.865,0,0,0,1.817-5.755,6.764,6.764,0,0,0-.584-2.921,6.441,6.441,0,0,0-1.644-2.1,12.122,12.122,0,0,0-2.834-1.687,29.319,29.319,0,0,0-3.894-1.276c-1.644-.433-3.332-.779-5.019-1.06-1.6-.26-3.332-.476-5.6-.736-1.947-.216-3.894-.411-5.863-.584L465.67,167.4a142.923,142.923,0,0,1-20.553-3.007A57.379,57.379,0,0,1,430.168,159a25.308,25.308,0,0,1-9.389-8.264,20.486,20.486,0,0,1-3.224-11.445,24.97,24.97,0,0,1,2.986-12.029,33.849,33.849,0,0,1,7.9-9.649,51.654,51.654,0,0,1,11.445-7.312,89.912,89.912,0,0,1,13.76-5.062,130.33,130.33,0,0,1,13.305-2.769c.584-.108,1.19-.195,1.8-.281,1.817-.26,3.635-.476,5.473-.649l.281-.043a3.836,3.836,0,0,1,3.245.606,2.844,2.844,0,0,1,.952,2.293c-.043,1.839-1.125,4.37-6.036,5.906a28.6,28.6,0,0,1-4.846.952l-1.32.195a82.553,82.553,0,0,0-21.872,6.6,46.663,46.663,0,0,0-9.541,5.841,26,26,0,0,0-6.144,7.118,16.642,16.642,0,0,0-2.142,8.221A11.48,11.48,0,0,0,428.2,145a14.8,14.8,0,0,0,4.067,4.522,27.238,27.238,0,0,0,6.4,3.483,60.525,60.525,0,0,0,8.351,2.51c3.05.692,6.252,1.255,9.5,1.709,3.31.411,6.685.779,10.038,1.082l9.8.822c4.63.411,9.065.865,13.219,1.341a90.255,90.255,0,0,1,10.471,1.861c5.257,1.32,9.216,3.288,11.834,5.841A14.357,14.357,0,0,1,516.056,178.906Z" transform="translate(-345.843 -101.39)" fill="currentColor"/>
    </g>
  </g>
</svg>
