<svg xmlns="http://www.w3.org/2000/svg" width="72.154" height="72.154" viewBox="0 0 72.154 72.154">
  <path id="build_circle_FILL0_wght400_GRAD0_opsz48" d="M51.982,58.747a2.076,2.076,0,0,0,2.8,0l3.968-3.7a1.863,1.863,0,0,0,0-2.8L45.037,38.544a21.9,21.9,0,0,0,.722-2.435,10.8,10.8,0,0,0,.271-2.435A12.625,12.625,0,0,0,33.4,21.046a10.821,10.821,0,0,0-3.067.451A14.273,14.273,0,0,0,27.36,22.76L35.3,30.607l-4.87,4.6L22.67,27.54a12.667,12.667,0,0,0-1.218,2.976,12.284,12.284,0,0,0-.406,3.157,11.765,11.765,0,0,0,3.608,8.7A11.99,11.99,0,0,0,33.4,45.939a13.592,13.592,0,0,0,2.48-.225,16.088,16.088,0,0,0,2.48-.676ZM40.077,76.154A36.592,36.592,0,0,1,25.827,73.4,34.918,34.918,0,0,1,6.751,54.327,36.592,36.592,0,0,1,4,40.077a36.358,36.358,0,0,1,2.751-14.16,35.21,35.21,0,0,1,7.621-11.454A35.967,35.967,0,0,1,40.077,4,35.788,35.788,0,0,1,76.154,40.077a35.967,35.967,0,0,1-10.462,25.7A35.21,35.21,0,0,1,54.237,73.4,36.358,36.358,0,0,1,40.077,76.154Zm0-36.077Zm0,30.665A30.046,30.046,0,0,0,70.742,40.077,30.046,30.046,0,0,0,40.077,9.412,30.046,30.046,0,0,0,9.412,40.077,30.046,30.046,0,0,0,40.077,70.742Z" transform="translate(-4 -4)" fill="currentColor"/>
</svg>
