<svg xmlns="http://www.w3.org/2000/svg" width="171" height="171" viewBox="0 0 171 171">
  <path id="Subtraction_8" data-name="Subtraction 8" d="M85.5,171A85.523,85.523,0,0,1,52.22,6.719a85.522,85.522,0,0,1,66.561,157.562A84.966,84.966,0,0,1,85.5,171Zm.293-119.846A35.06,35.06,0,0,0,72.2,53.8a33.967,33.967,0,0,0-11,7.318,34.674,34.674,0,0,0-7.361,10.955A34.269,34.269,0,0,0,51.154,85.62a34.907,34.907,0,0,0,2.685,13.639A34.431,34.431,0,0,0,61.2,110.3a35.129,35.129,0,0,0,11,7.4,35.242,35.242,0,0,0,27.191,0,35.124,35.124,0,0,0,11-7.4,34.429,34.429,0,0,0,7.361-11.041,34.91,34.91,0,0,0,2.683-13.639,34.278,34.278,0,0,0-2.683-13.552,34.682,34.682,0,0,0-7.361-10.955,33.966,33.966,0,0,0-11-7.318A35.051,35.051,0,0,0,85.793,51.154Zm0,64.257h0a29.657,29.657,0,0,1-5.064-7.36A44.2,44.2,0,0,1,77.48,98.7H94.193a43.224,43.224,0,0,1-3.333,9.569,28.964,28.964,0,0,1-5.066,7.144Zm-7.361-1.039h0a38.218,38.218,0,0,1-11.686-6.018A31.186,31.186,0,0,1,59.121,98.7h12.99a52.156,52.156,0,0,0,2.6,8.574,41.735,41.735,0,0,0,3.721,7.1Zm14.809-.087,0,0a39.53,39.53,0,0,0,3.678-7.1A62.866,62.866,0,0,0,99.563,98.7h12.9a31.17,31.17,0,0,1-8.011,9.613,34.852,34.852,0,0,1-11.211,5.974ZM114.2,93.5H100.343c.17-1.71.3-3.151.389-4.287.086-1.117.13-2.327.13-3.594,0-.92-.029-1.925-.087-2.987s-.171-2.58-.346-4.633H114.2a25.285,25.285,0,0,1,.824,3.724,30.709,30.709,0,0,1,.216,3.9,33.98,33.98,0,0,1-.216,4.028A24.441,24.441,0,0,1,114.2,93.5Zm-19.051,0H76.528c-.23-1.776-.375-3.247-.433-4.372s-.087-2.3-.087-3.508c0-1.149.029-2.271.087-3.333s.2-2.517.433-4.287H95.147c.231,1.794.376,3.235.433,4.287s.087,2.186.087,3.333c0,1.206-.029,2.386-.087,3.508s-.2,2.586-.433,4.371Zm-23.989,0H57.389a24.611,24.611,0,0,1-.822-3.853,33.67,33.67,0,0,1-.217-4.028,30.434,30.434,0,0,1,.217-3.9A25.45,25.45,0,0,1,57.389,78H71.245c-.171,1.363-.288,2.63-.346,3.767s-.087,2.42-.087,3.853c0,1.211.015,2.449.043,3.68s.13,2.641.3,4.2Zm41.308-20.7H99.476a56.472,56.472,0,0,0-2.641-8.66,37.866,37.866,0,0,0-3.68-6.928,29.986,29.986,0,0,1,11.474,5.63,28.193,28.193,0,0,1,7.837,9.957Zm-18.186,0H77.48A56.224,56.224,0,0,1,81.117,62.5a19.144,19.144,0,0,1,4.676-6.148,35.546,35.546,0,0,1,5.282,7.578,33.945,33.945,0,0,1,3.2,8.875ZM72.2,72.8H59.121A28.575,28.575,0,0,1,78.345,57.3a41.3,41.3,0,0,0-3.722,7.145A49,49,0,0,0,72.2,72.8Z" fill="currentColor"/>
</svg>
